<svg width="48" height="48" viewBox="0 0 48 48" fill="none" xmlns="http://www.w3.org/2000/svg">
<path d="M6 44L9 41L12 44L15 41L18 44L21.16 40.84C21.44 41.22 21.76 41.56 22.1 41.9C24.7238 44.4846 28.2604 45.9314 31.9434 45.9269C35.6265 45.9223 39.1595 44.4668 41.7769 41.8757C44.3943 39.2845 45.8855 35.7664 45.9272 32.0836C45.969 28.4008 44.558 24.8498 42 22.2V4L39 7L36 4L33 7L30 4L27 7L24 4L21 7L18 4L15 7L12 4L9 7L6 4V44ZM41.7 32C41.7 33.28 41.46 34.54 41 35.72C40.48 36.88 39.76 38 38.86 38.86C38 39.76 36.88 40.48 35.72 41C34.54 41.46 33.28 41.7 32 41.7C26.64 41.7 22.3 37.36 22.3 32C22.3 29.42 23.32 27 25.14 25.14C27 23.32 29.42 22.3 32 22.3C37.34 22.3 41.7 26.64 41.7 32ZM30 33.38V26H33V31.64L37.88 34.46L36.38 37.06L30 33.38Z" fill="white"/>
</svg>
