<svg width="37" height="39" viewBox="0 0 37 39" fill="none" xmlns="http://www.w3.org/2000/svg">
<path d="M0.833252 38.8671V0.132919L3.63784 2.25734L6.60804 0.135127L9.58267 2.25734L12.5551 0.135127L15.5275 2.25734L18.4999 0.135127L21.4723 2.25734L24.4448 0.135127L27.4172 2.25734L30.3918 0.135127L33.3642 2.25734L36.1666 0.135127V38.8649L33.362 36.7427L30.3918 38.8649L27.4172 36.7427L24.4448 38.8649L21.4723 36.7427L18.4999 38.8649L15.5275 36.7427L12.5551 38.8649L9.58267 36.7427L6.60804 38.8649L3.63563 36.7427L0.833252 38.8671ZM6.35408 28.0794H30.6458V25.871H6.35408V28.0794ZM6.35408 20.6042H30.6458V18.3958H6.35408V20.6042ZM6.35408 13.129H30.6458V10.9206H6.35408V13.129Z" fill="white"/>
</svg>
