<svg width="57" height="57" viewBox="0 0 57 57" fill="none" xmlns="http://www.w3.org/2000/svg">
<g clip-path="url(#clip0_3_1265)">
<path d="M28.5 4.75L28.7779 4.76662C29.308 4.82914 29.8016 5.06844 30.1791 5.4459C30.5566 5.82336 30.7959 6.31698 30.8584 6.84712L30.875 7.125V16.625L30.8869 16.9812C30.9719 18.1122 31.4587 19.1753 32.2593 19.9786C33.0599 20.7818 34.1215 21.2721 35.2521 21.3608L35.625 21.375H45.125L45.4029 21.3916C45.933 21.4541 46.4266 21.6934 46.8041 22.0709C47.1816 22.4484 47.4209 22.942 47.4834 23.4721L47.5 23.75V45.125C47.5001 46.9424 46.8057 48.6911 45.559 50.0134C44.3122 51.3356 42.6072 52.1315 40.793 52.2381L40.375 52.25H16.625C14.8076 52.2501 13.0589 51.5557 11.7366 50.309C10.4144 49.0622 9.61849 47.3572 9.51188 45.543L9.5 45.125V11.875C9.4999 10.0576 10.1943 8.3089 11.441 6.98663C12.6878 5.66436 14.3928 4.86849 16.207 4.76188L16.625 4.75H28.5ZM24.9636 26.4575C24.488 26.1744 23.9285 26.0664 23.3817 26.1519C22.835 26.2375 22.3352 26.5113 21.9688 26.9261C21.6025 27.3409 21.3925 27.8707 21.3751 28.4239C21.3577 28.977 21.5341 29.5189 21.8737 29.9559L22.0709 30.1791L25.1394 33.25L22.0709 36.3209L21.8737 36.5441C21.5195 37.0011 21.3442 37.5716 21.3806 38.1487C21.417 38.7257 21.6627 39.2697 22.0715 39.6785C22.4803 40.0873 23.0243 40.333 23.6013 40.3694C24.1784 40.4058 24.7489 40.2305 25.2059 39.8763L25.4291 39.6791L28.5 36.6106L31.5709 39.6791L31.7941 39.8763C32.2511 40.2305 32.8216 40.4058 33.3987 40.3694C33.9757 40.333 34.5197 40.0873 34.9285 39.6785C35.3373 39.2697 35.583 38.7257 35.6194 38.1487C35.6558 37.5716 35.4805 37.0011 35.1262 36.5441L34.9291 36.3209L31.8606 33.25L34.9291 30.1791L35.1262 29.9559C35.4805 29.4989 35.6558 28.9284 35.6194 28.3513C35.583 27.7743 35.3373 27.2303 34.9285 26.8215C34.5197 26.4127 33.9757 26.167 33.3987 26.1306C32.8216 26.0942 32.2511 26.2695 31.7941 26.6238L31.5709 26.8209L28.5 29.8894L25.4291 26.8209L25.2059 26.6238L24.9636 26.4575Z" fill="white"/>
<path d="M45.1249 16.625H35.6249L35.6226 7.12262L45.1249 16.625Z" fill="white"/>
</g>
<defs>
<clipPath id="clip0_3_1265">
<rect width="57" height="57" fill="white"/>
</clipPath>
</defs>
</svg>
