<?xml version="1.0" encoding="utf-8"?>
<!-- Generator: Adobe Illustrator 27.5.0, SVG Export Plug-In . SVG Version: 6.00 Build 0)  -->
<svg version="1.1" xmlns="http://www.w3.org/2000/svg" xmlns:xlink="http://www.w3.org/1999/xlink" x="0px" y="0px"
	 viewBox="0 0 500 500" style="enable-background:new 0 0 500 500;" xml:space="preserve">
<g id="Background_Complete">
	<g>
		<rect y="382.398" style="fill:#EBEBEB;" width="500" height="0.25"/>
		<rect x="416.779" y="398.494" style="fill:#EBEBEB;" width="33.122" height="0.25"/>
		<rect x="322.527" y="401.208" style="fill:#EBEBEB;" width="8.693" height="0.25"/>
		<rect x="396.586" y="389.208" style="fill:#EBEBEB;" width="19.192" height="0.25"/>
		<rect x="52.459" y="390.888" style="fill:#EBEBEB;" width="43.193" height="0.25"/>
		<rect x="104.556" y="390.888" style="fill:#EBEBEB;" width="6.333" height="0.25"/>
		<rect x="131.471" y="395.111" style="fill:#EBEBEB;" width="93.676" height="0.25"/>
		<path style="fill:#EBEBEB;" d="M237.014,337.8H43.915c-3.147,0-5.708-2.561-5.708-5.708V60.66c0-3.147,2.561-5.708,5.708-5.708
			h193.099c3.146,0,5.707,2.561,5.707,5.708v271.432C242.721,335.239,240.16,337.8,237.014,337.8z M43.915,55.203
			c-3.01,0-5.458,2.448-5.458,5.458v271.432c0,3.01,2.448,5.458,5.458,5.458h193.099c3.009,0,5.457-2.448,5.457-5.458V60.66
			c0-3.009-2.448-5.458-5.457-5.458H43.915z"/>
		<path style="fill:#EBEBEB;" d="M453.31,337.8H260.212c-3.147,0-5.707-2.561-5.707-5.708V60.66c0-3.147,2.561-5.708,5.707-5.708
			H453.31c3.148,0,5.708,2.561,5.708,5.708v271.432C459.019,335.239,456.458,337.8,453.31,337.8z M260.212,55.203
			c-3.009,0-5.457,2.448-5.457,5.458v271.432c0,3.01,2.448,5.458,5.457,5.458H453.31c3.01,0,5.458-2.448,5.458-5.458V60.66
			c0-3.009-2.448-5.458-5.458-5.458H260.212z"/>
	</g>
	<g>
		<rect x="398.824" y="200.206" style="fill:#F0F0F0;" width="13.846" height="36.31"/>
		<rect x="131.293" y="119.97" style="fill:#E0E0E0;" width="107.669" height="202.519"/>
		
			<rect x="86.868" y="170.395" transform="matrix(-1.836970e-16 1 -1 -1.836970e-16 406.3567 36.1013)" style="fill:#EBEBEB;" width="196.519" height="101.669"/>
		<rect x="144.321" y="130.297" style="fill:#F5F5F5;" width="81.613" height="20.451"/>
		<rect x="144.321" y="167.024" style="fill:#F5F5F5;" width="81.613" height="20.451"/>
		<rect x="144.321" y="203.751" style="fill:#F5F5F5;" width="81.613" height="20.451"/>
		<rect x="144.321" y="240.478" style="fill:#F5F5F5;" width="81.613" height="69.028"/>
		<polygon style="fill:#E0E0E0;" points="180.652,154.036 185.128,158.511 189.603,154.036 		"/>
		<polygon style="fill:#E0E0E0;" points="180.652,190.428 185.128,194.904 189.603,190.428 		"/>
		<polygon style="fill:#E0E0E0;" points="180.652,227.487 185.128,231.963 189.603,227.487 		"/>
		<g>
			<rect x="303.88" y="102.831" style="fill:#E0E0E0;" width="88.22" height="38.382"/>
			<rect x="307.195" y="105.896" style="fill:#EBEBEB;" width="81.589" height="32.252"/>
			<rect x="354.908" y="110.836" style="fill:#F5F5F5;" width="29.675" height="22.757"/>
		</g>
		<g>
			<polygon style="fill:#E0E0E0;" points="111.396,239.776 89.242,239.776 89.242,215.132 97.055,207.132 111.396,207.132 			"/>
			<polygon style="fill:#F5F5F5;" points="89.242,215.132 101.77,215.132 111.396,207.132 97.055,207.132 			"/>
			<rect x="89.242" y="215.132" style="fill:#E6E6E6;" width="12.528" height="24.643"/>
		</g>
		<path style="fill:#E0E0E0;" d="M408.04,219.677c-0.07,1.776-1.183,3.191-2.558,3.191c-1.375,0-2.488-1.415-2.558-3.191h-6.467
			v23.808h18.051v-23.808H408.04z"/>
	</g>
</g>
<g id="Background_Simple" style="display:none;">
	<g style="display:inline;">
		<path style="fill:#407BFF;" d="M93.503,101.625c27.919-59.449,127.059-51.062,165.317-9.255
			c38.258,41.806,50.696,68.599,85.208,52.983c34.512-15.616,78.518-11.44,81.043,38.164s-37.913,108.263-102.09,125.615
			c-64.177,17.352-64.161,78.759-149.1,66.368c-46.31-6.756-47.365-56.86-40.825-98.301S61.124,170.569,93.503,101.625z"/>
		<path style="opacity:0.9;fill:#FFFFFF;" d="M93.503,101.625c27.919-59.449,127.059-51.062,165.317-9.255
			c38.258,41.806,50.696,68.599,85.208,52.983c34.512-15.616,78.518-11.44,81.043,38.164s-37.913,108.263-102.09,125.615
			c-64.177,17.352-64.161,78.759-149.1,66.368c-46.31-6.756-47.365-56.86-40.825-98.301S61.124,170.569,93.503,101.625z"/>
	</g>
</g>
<g id="Shadow_1_">
	<ellipse id="_x3C_Path_x3E__359_" style="fill:#F5F5F5;" cx="250" cy="416.238" rx="193.889" ry="11.323"/>
</g>
<g id="Plant">
	<g>
		<path style="fill:#407BFF;" d="M107.166,383.243c0,0-6.576-14.349,0.938-28.494s9.692-17.477,4.902-20.375
			c-4.79-2.898-6.987,11.316-6.987,11.316s-4.038-9.778-0.704-20.012c3.334-10.233,5.424-26.901,0.872-28.689
			c-4.553-1.788-0.869,20.793-4.82,28.49c0,0-3.318-8.569-3.864-16.788c-0.546-8.219,0.307-21.344-3.288-24.711
			c-3.595-3.367-5.899-1.037-2.365,17.101s3.507,32.884,3.507,32.884s-7.804-23.794-13.041-24.488
			c-5.238-0.694-5.231,7.012-0.748,13.695c4.483,6.683,13.129,18.656,14.547,24.817c0,0-8.566-17.906-16.271-12.418
			c-7.705,5.488,6.707,16.303,13.13,20.211c6.424,3.908,10.884,28.406,10.884,28.406L107.166,383.243z"/>
		<path style="opacity:0.2;enable-background:new    ;" d="M107.166,383.243c0,0-6.576-14.349,0.938-28.494
			s9.692-17.477,4.902-20.375c-4.79-2.898-6.987,11.316-6.987,11.316s-4.038-9.778-0.704-20.012
			c3.334-10.233,5.424-26.901,0.872-28.689c-4.553-1.788-0.869,20.793-4.82,28.49c0,0-3.318-8.569-3.864-16.788
			c-0.546-8.219,0.307-21.344-3.288-24.711c-3.595-3.367-5.899-1.037-2.365,17.101s3.507,32.884,3.507,32.884
			s-7.804-23.794-13.041-24.488c-5.238-0.694-5.231,7.012-0.748,13.695c4.483,6.683,13.129,18.656,14.547,24.817
			c0,0-8.566-17.906-16.271-12.418c-7.705,5.488,6.707,16.303,13.13,20.211c6.424,3.908,10.884,28.406,10.884,28.406
			L107.166,383.243z"/>
		<path style="fill:#407BFF;" d="M101.975,389.128c0,0,6.404-14.445-1.279-28.477c-7.683-14.032-9.901-17.331-5.146-20.3
			c4.755-2.969,7.122,11.21,7.122,11.21s3.92-9.838,0.464-20.02c-3.456-10.183-5.746-26.818-1.215-28.673
			c4.531-1.856,1.119,20.778,5.161,28.415c0,0,3.215-8.617,3.662-16.844c0.447-8.227-0.563-21.338,2.992-24.758
			c3.554-3.42,5.886-1.125,2.57,17.065c-3.315,18.19-3.112,32.933-3.112,32.933s7.518-23.908,12.746-24.68
			c5.229-0.772,5.315,6.933,0.912,13.683c-4.403,6.75-12.904,18.851-14.248,25.032c0,0,8.35-18.032,16.121-12.659
			c7.77,5.372-6.511,16.402-12.887,20.406c-6.376,4.003-10.543,28.565-10.543,28.565L101.975,389.128z"/>
		<g>
			<polygon style="fill:#263238;" points="131.51,378.83 78.609,378.83 82.891,416.686 127.229,416.686 			"/>
		</g>
	</g>
</g>
<g id="ATM">
	<g>
		<g>
			<polygon style="fill:#263238;" points="388.74,169.074 388.74,416.326 231.865,416.326 231.865,306.773 248.548,283.542 
				343.921,150.748 			"/>
			<polygon style="opacity:0.2;fill:#FFFFFF;" points="388.74,169.074 388.74,416.326 231.865,416.326 231.865,306.773 
				248.548,283.542 343.921,150.748 			"/>
			<polygon style="opacity:0.2;fill:#FFFFFF;" points="319.111,283.542 319.111,416.686 231.865,416.686 231.865,306.773 
				248.548,283.542 			"/>
			
				<rect x="245.983" y="333.958" style="opacity:0.2;fill:none;stroke:#000000;stroke-width:0.9237;stroke-miterlimit:10;" width="52.987" height="50.283"/>
		</g>
		<path style="fill:#407BFF;" d="M350.251,146.47h-71.624c0,0-53.48,107.314-53.48,128.63v33.059c0,3.617,2.933,6.55,6.55,6.55
			h71.366h9.501h7.628c3.617,0,6.55-2.932,6.55-6.55v-33.911c0-28.869,28.166-123.495,28.166-123.495L350.251,146.47z"/>
		<path style="opacity:0.2;fill:#FFFFFF;" d="M312.564,314.709c3.617,0,6.55-2.932,6.55-6.55V275.1
			c0-28.26,31.138-128.63,31.138-128.63h-71.624c0,0-53.48,107.314-53.48,128.63v33.059c0,3.617,2.933,6.55,6.55,6.55H312.564z"/>
		<polygon style="opacity:0.2;enable-background:new    ;" points="244.156,242.09 311.394,242.09 335.471,166.955 278.83,166.955 
					"/>
		<polygon style="opacity:0.2;enable-background:new    ;" points="287.966,180.476 278.83,166.955 335.471,166.955 
			331.208,180.476 		"/>
		<g>
			<polygon style="fill:#263238;" points="287.448,264.878 249.809,264.878 254.377,246.906 292.016,246.906 			"/>
			<polygon style="opacity:0.2;fill:#FFFFFF;" points="287.448,264.878 249.809,264.878 254.377,246.906 292.016,246.906 			"/>
			<path style="fill:#263238;" d="M287.973,249.165H256.91c-0.568,0-1.061,0.391-1.19,0.944l-0.85,3.632
				c-0.137,0.587,0.308,1.15,0.912,1.15h8.145c0.593,0,1.037,0.545,0.917,1.126l-0.996,4.813c-0.12,0.581,0.324,1.126,0.917,1.126
				h8.037c0.895,0,1.669-0.622,1.861-1.496l0.896-4.072c0.192-0.874,0.967-1.496,1.861-1.496h8.432c0.887,0,1.657-0.612,1.857-1.477
				l0.82-3.55C288.611,249.506,288.34,249.165,287.973,249.165z"/>
		</g>
		<g>
			<polyline style="fill:#263238;" points="331.208,180.476 287.966,180.476 266.081,235.121 313.627,235.121 331.208,180.476 			
				"/>
			<polyline style="opacity:0.5;fill:#FFFFFF;" points="331.208,180.476 287.966,180.476 266.081,235.121 313.627,235.121 
				331.208,180.476 			"/>
			<polyline style="fill:#407BFF;" points="329.406,185.883 289.836,185.883 278.83,213.234 320.354,213.234 			"/>
			<polygon style="opacity:0.2;enable-background:new    ;" points="284.474,213.234 294.95,185.883 289.836,185.883 
				278.83,213.234 			"/>
			<polygon style="opacity:0.2;enable-background:new    ;" points="276.435,219.677 274.364,225.524 295.802,225.524 
				297.473,219.677 			"/>
			<polygon style="opacity:0.4;enable-background:new    ;" points="276.393,221.9 276.145,222.601 295.568,222.601 295.768,221.9 
							"/>
			<polyline style="opacity:0.2;enable-background:new    ;" points="318.576,219.677 305.996,219.677 303.925,225.524 
				316.862,225.524 			"/>
			<path style="opacity:0.2;fill:#FFFFFF;" d="M285.956,211.76l9.812-24.666h29.695c0,0-14.8,8.587-25.945,16.079
				c0,0,6.578-7.126,13.155-12.607h-4.02C308.653,190.565,294.32,199.883,285.956,211.76z"/>
		</g>
		<g>
			<polygon style="fill:#263238;" points="244.156,242.09 266.081,235.121 313.627,235.121 311.394,242.09 			"/>
			<polygon style="opacity:0.6;fill:#FFFFFF;" points="244.156,242.09 266.081,235.121 313.627,235.121 311.394,242.09 			"/>
		</g>
		<g>
			<polygon style="fill:#263238;" points="258.651,239.776 261.452,230.589 284.474,230.589 288.372,235.878 283.256,239.776 			"/>
			<polygon style="opacity:0.2;fill:#FFFFFF;" points="258.651,239.776 261.452,230.589 284.474,230.589 288.372,235.878 
				283.256,239.776 			"/>
			<polygon style="fill:#263238;" points="259.869,239.776 262.305,231.736 282.038,231.736 282.038,239.776 			"/>
		</g>
		<path style="fill:#FFFFFF;" d="M328.684,152.997c0.393,2.457-8.46,5.916-19.774,7.725c-11.314,1.81-20.805,1.285-21.198-1.172
			c-0.393-2.457,8.46-5.916,19.774-7.725C318.8,150.015,328.291,150.54,328.684,152.997z"/>
		
			<text transform="matrix(1.0186 0 -0.1605 0.987 291.2484 160.5577)" style="fill:#263238; font-family:'Montserrat-ExtraBoldItalic'; font-size:12.3454px;">ATM</text>
		<rect x="287.699" y="289.717" style="opacity:0.2;fill:#FFFFFF;" width="18.121" height="18.121"/>
		<rect x="267.836" y="289.717" style="opacity:0.2;fill:#FFFFFF;" width="18.121" height="18.121"/>
		<rect x="232.32" y="299.685" style="opacity:0.2;fill:#FFFFFF;" width="7.085" height="7.085"/>
	</g>
</g>
<g id="Trash_bin">
	<g>
		<g>
			<path style="fill:#407BFF;" d="M417.767,392.579c0.982-1.648-0.403-4.127-2.321-4.155c0.841-2.364,0.012-5.222-1.964-6.77
				c-0.249-0.195-0.535-0.378-0.852-0.379c-0.34-0.001-0.64,0.206-0.916,0.404c-1.807,1.298-3.614,2.596-5.421,3.895
				c-0.414,0.297-0.842,0.611-1.076,1.064c-1.108,2.147,2.887,4.898,1.244,6.669c-0.471,0.509-1.231,0.614-1.819,0.982
				c-1.29,0.806-1.446,2.577-2.047,3.975c-0.602,1.398-2.698,2.482-3.5,1.19c0.592-1.341-1.2-2.496-2.656-2.666
				c-1.436-0.168-2.975-0.25-3.78-1.616c-2.065,1.804-6.69-3.231-6.584-5.262c-1.697,0.13-2.854,1.719-3.226,3.309
				c-0.385,1.65-0.147,3.37-0.174,5.061c-0.052,3.288-1.113,6.508-1.055,9.796c0.045,2.559,1.033,5.399,3.376,6.429
				c1.128,0.495,2.401,0.496,3.633,0.488c8.891-0.057,17.782-0.114,26.673-0.171c0.64-0.004,1.308-0.015,1.876-0.311
				c1.203-0.628,1.458-2.209,1.569-3.562c0.478-5.795,0.955-11.589,1.432-17.384C419.376,393.236,418.572,392.907,417.767,392.579z"
				/>
			<path style="opacity:0.3;fill:#FFFFFF;enable-background:new    ;" d="M417.767,392.579c0.982-1.648-0.403-4.127-2.321-4.155
				c0.841-2.364,0.012-5.222-1.964-6.77c-0.249-0.195-0.535-0.378-0.852-0.379c-0.34-0.001-0.64,0.206-0.916,0.404
				c-1.807,1.298-3.614,2.596-5.421,3.895c-0.414,0.297-0.842,0.611-1.076,1.064c-1.108,2.147,2.887,4.898,1.244,6.669
				c-0.471,0.509-1.231,0.614-1.819,0.982c-1.29,0.806-1.446,2.577-2.047,3.975c-0.602,1.398-2.698,2.482-3.5,1.19
				c0.592-1.341-1.2-2.496-2.656-2.666c-1.436-0.168-2.975-0.25-3.78-1.616c-2.065,1.804-6.69-3.231-6.584-5.262
				c-1.697,0.13-2.854,1.719-3.226,3.309c-0.385,1.65-0.147,3.37-0.174,5.061c-0.052,3.288-1.113,6.508-1.055,9.796
				c0.045,2.559,1.033,5.399,3.376,6.429c1.128,0.495,2.401,0.496,3.633,0.488c8.891-0.057,17.782-0.114,26.673-0.171
				c0.64-0.004,1.308-0.015,1.876-0.311c1.203-0.628,1.458-2.209,1.569-3.562c0.478-5.795,0.955-11.589,1.432-17.384
				C419.376,393.236,418.572,392.907,417.767,392.579z"/>
		</g>
		<g>
			<g>
				<path style="fill:#407BFF;" d="M419.324,364.386h-2.995h-8.246h-3.005h-8.236h-3.005H385.6h-3.005h-4.658l0.34,4.181
					l0.243,2.985l0.632,7.77l0.36,4.463l0.476,5.941l0.204,2.548l0.068,0.758l0.243,2.995l0.331,4.104l0.205,2.548l0.214,2.587
					l0.243,2.995l0.185,2.266l0.204,2.548l0.088,1.109h5.445h4.6h6.642h4.6h6.642h4.599h5.455l0.088-1.109l0.204-2.538l0.185-2.285
					l0.243-2.995l0.214-2.577l0.204-2.548l0.33-4.113l0.243-2.986l0.059-0.758l0.204-2.548l0.486-5.941l0.36-4.454l0.622-7.78
					l0.243-2.985l0.34-4.181H419.324z M421.814,367.128L421.814,367.128l-0.798-0.798h0.866L421.814,367.128z M421.609,369.666
					l-0.078,1.011l-3.705,3.705l-4.249-4.25l3.802-3.802h0.895L421.609,369.666z M420.539,382.91l-2.713,2.713l-4.249-4.25
					l4.249-4.24l2.937,2.937L420.539,382.91z M381.156,380.071L381.156,380.071l2.937-2.937l4.249,4.24l-4.249,4.25l-2.703-2.713
					L381.156,380.071z M416.455,375.753l-4.25,4.25l-4.249-4.25l4.249-4.249L416.455,375.753z M409.775,366.33h4.862l-2.431,2.431
					L409.775,366.33z M410.825,381.374l-4.24,4.25l-4.25-4.25l4.25-4.24L410.825,381.374z M396.715,386.995l4.249-4.24l4.24,4.24
					l-4.24,4.25L396.715,386.995z M399.583,392.615l-4.25,4.249l-4.24-4.24l4.25-4.249L399.583,392.615z M406.585,388.376
					l4.24,4.249l-4.24,4.24l-4.25-4.249L406.585,388.376z M400.964,380.003l-4.249-4.25l4.249-4.249l4.24,4.249L400.964,380.003z
					 M399.583,381.374l-4.24,4.25l-4.25-4.25l4.25-4.24L399.583,381.374z M389.713,380.003l-4.24-4.25l4.24-4.249l4.249,4.249
					L389.713,380.003z M389.713,382.755l4.249,4.24l-4.249,4.25l-4.24-4.25L389.713,382.755z M393.963,398.246l-4.249,4.24
					l-4.24-4.24l4.24-4.249L393.963,398.246z M395.334,399.617l4.25,4.249l-4.24,4.25l-4.25-4.25L395.334,399.617z M396.715,398.246
					l4.249-4.249l4.24,4.249l-4.24,4.24L396.715,398.246z M406.585,399.617l4.24,4.249l-4.24,4.25l-4.25-4.25L406.585,399.617z
					 M412.206,405.237l4.25,4.249l-2.752,2.752h-2.995l-2.752-2.752L412.206,405.237z M407.956,398.246l4.249-4.249l4.25,4.249
					l-4.25,4.24L407.956,398.246z M407.956,386.995l4.249-4.24l4.25,4.24l-4.25,4.25L407.956,386.995z M410.825,370.133l-4.24,4.25
					l-4.25-4.25l3.802-3.802h0.895L410.825,370.133z M400.964,368.762l-2.431-2.431h4.853L400.964,368.762z M399.583,370.133
					l-4.24,4.25l-4.25-4.25l3.802-3.802h0.895L399.583,370.133z M392.145,366.33l-2.431,2.431l-2.421-2.431H392.145z M384.54,366.33
					l3.802,3.802l-4.249,4.25l-3.695-3.705l-0.078-1.012l3.326-3.335H384.54z M380.903,366.33l-0.788,0.788l0,0l-0.068-0.788
					H380.903z M380.641,373.672l2.081,2.081l-1.77,1.77L380.641,373.672z M381.798,387.918l-0.165-2.013l0,0l1.089,1.089
					L381.798,387.918L381.798,387.918z M382.002,390.476l2.091-2.1l4.249,4.249l-4.249,4.24l-1.711-1.711L382.002,390.476z
					 M382.634,398.333l-0.01-0.185l0.098,0.097L382.634,398.333L382.634,398.333z M383.373,407.386l-0.535-6.515l1.255-1.254
					l4.249,4.249l-4.249,4.24L383.373,407.386L383.373,407.386z M383.762,412.239l-0.078-0.972l0.409-0.408l1.381,1.381H383.762z
					 M385.474,409.487l4.24-4.249l4.249,4.249l-2.752,2.752h-2.995L385.474,409.487z M393.963,412.239l1.381-1.381l1.381,1.381
					H393.963z M399.467,412.239l-2.752-2.752l4.249-4.249l4.24,4.249l-2.742,2.752H399.467z M405.204,412.239l1.381-1.381
					l1.381,1.381H405.204z M418.157,412.239h-1.712l1.381-1.381l0.409,0.408L418.157,412.239z M418.556,407.386l-0.729,0.72
					l-4.249-4.24l4.249-4.249l1.255,1.254L418.556,407.386z M419.304,398.139l-0.019,0.194l-0.088-0.088L419.304,398.139
					L419.304,398.139z M419.548,395.153l-1.721,1.711l-4.249-4.24l4.249-4.249l2.1,2.1L419.548,395.153z M420.131,387.928
					l-0.934-0.934l1.099-1.089L420.131,387.928z M421.288,373.663l-0.311,3.87l-1.78-1.78L421.288,373.663L421.288,373.663z"/>
			</g>
			<g style="opacity:0.6;enable-background:new    ;">
				<path style="fill:#FFFFFF;" d="M419.324,364.386h-2.995h-8.246h-3.005h-8.236h-3.005H385.6h-3.005h-4.658l0.34,4.181
					l0.243,2.985l0.632,7.77l0.36,4.463l0.476,5.941l0.204,2.548l0.068,0.758l0.243,2.995l0.331,4.104l0.205,2.548l0.214,2.587
					l0.243,2.995l0.185,2.266l0.204,2.548l0.088,1.109h5.445h4.6h6.642h4.6h6.642h4.599h5.455l0.088-1.109l0.204-2.538l0.185-2.285
					l0.243-2.995l0.214-2.577l0.204-2.548l0.33-4.113l0.243-2.986l0.059-0.758l0.204-2.548l0.486-5.941l0.36-4.454l0.622-7.78
					l0.243-2.985l0.34-4.181H419.324z M421.814,367.128L421.814,367.128l-0.798-0.798h0.866L421.814,367.128z M421.609,369.666
					l-0.078,1.011l-3.705,3.705l-4.249-4.25l3.802-3.802h0.895L421.609,369.666z M420.539,382.91l-2.713,2.713l-4.249-4.25
					l4.249-4.24l2.937,2.937L420.539,382.91z M381.156,380.071L381.156,380.071l2.937-2.937l4.249,4.24l-4.249,4.25l-2.703-2.713
					L381.156,380.071z M416.455,375.753l-4.25,4.25l-4.249-4.25l4.249-4.249L416.455,375.753z M409.775,366.33h4.862l-2.431,2.431
					L409.775,366.33z M410.825,381.374l-4.24,4.25l-4.25-4.25l4.25-4.24L410.825,381.374z M396.715,386.995l4.249-4.24l4.24,4.24
					l-4.24,4.25L396.715,386.995z M399.583,392.615l-4.25,4.249l-4.24-4.24l4.25-4.249L399.583,392.615z M406.585,388.376
					l4.24,4.249l-4.24,4.24l-4.25-4.249L406.585,388.376z M400.964,380.003l-4.249-4.25l4.249-4.249l4.24,4.249L400.964,380.003z
					 M399.583,381.374l-4.24,4.25l-4.25-4.25l4.25-4.24L399.583,381.374z M389.713,380.003l-4.24-4.25l4.24-4.249l4.249,4.249
					L389.713,380.003z M389.713,382.755l4.249,4.24l-4.249,4.25l-4.24-4.25L389.713,382.755z M393.963,398.246l-4.249,4.24
					l-4.24-4.24l4.24-4.249L393.963,398.246z M395.334,399.617l4.25,4.249l-4.24,4.25l-4.25-4.25L395.334,399.617z M396.715,398.246
					l4.249-4.249l4.24,4.249l-4.24,4.24L396.715,398.246z M406.585,399.617l4.24,4.249l-4.24,4.25l-4.25-4.25L406.585,399.617z
					 M412.206,405.237l4.25,4.249l-2.752,2.752h-2.995l-2.752-2.752L412.206,405.237z M407.956,398.246l4.249-4.249l4.25,4.249
					l-4.25,4.24L407.956,398.246z M407.956,386.995l4.249-4.24l4.25,4.24l-4.25,4.25L407.956,386.995z M410.825,370.133l-4.24,4.25
					l-4.25-4.25l3.802-3.802h0.895L410.825,370.133z M400.964,368.762l-2.431-2.431h4.853L400.964,368.762z M399.583,370.133
					l-4.24,4.25l-4.25-4.25l3.802-3.802h0.895L399.583,370.133z M392.145,366.33l-2.431,2.431l-2.421-2.431H392.145z M384.54,366.33
					l3.802,3.802l-4.249,4.25l-3.695-3.705l-0.078-1.012l3.326-3.335H384.54z M380.903,366.33l-0.788,0.788l0,0l-0.068-0.788
					H380.903z M380.641,373.672l2.081,2.081l-1.77,1.77L380.641,373.672z M381.798,387.918l-0.165-2.013l0,0l1.089,1.089
					L381.798,387.918L381.798,387.918z M382.002,390.476l2.091-2.1l4.249,4.249l-4.249,4.24l-1.711-1.711L382.002,390.476z
					 M382.634,398.333l-0.01-0.185l0.098,0.097L382.634,398.333L382.634,398.333z M383.373,407.386l-0.535-6.515l1.255-1.254
					l4.249,4.249l-4.249,4.24L383.373,407.386L383.373,407.386z M383.762,412.239l-0.078-0.972l0.409-0.408l1.381,1.381H383.762z
					 M385.474,409.487l4.24-4.249l4.249,4.249l-2.752,2.752h-2.995L385.474,409.487z M393.963,412.239l1.381-1.381l1.381,1.381
					H393.963z M399.467,412.239l-2.752-2.752l4.249-4.249l4.24,4.249l-2.742,2.752H399.467z M405.204,412.239l1.381-1.381
					l1.381,1.381H405.204z M418.157,412.239h-1.712l1.381-1.381l0.409,0.408L418.157,412.239z M418.556,407.386l-0.729,0.72
					l-4.249-4.24l4.249-4.249l1.255,1.254L418.556,407.386z M419.304,398.139l-0.019,0.194l-0.088-0.088L419.304,398.139
					L419.304,398.139z M419.548,395.153l-1.721,1.711l-4.249-4.24l4.249-4.249l2.1,2.1L419.548,395.153z M420.131,387.928
					l-0.934-0.934l1.099-1.089L420.131,387.928z M421.288,373.663l-0.311,3.87l-1.78-1.78L421.288,373.663L421.288,373.663z"/>
			</g>
		</g>
		<path style="fill:#407BFF;" d="M377.268,368.065h47.385c1.094,0,1.981-0.887,1.981-1.981v-1.452c0-1.094-0.887-1.981-1.981-1.981
			h-47.385c-1.094,0-1.981,0.887-1.981,1.981l0,1.452C375.288,367.178,376.174,368.065,377.268,368.065z"/>
		<path style="fill:#407BFF;" d="M420.951,416.686h-39.98c-1.094,0-1.981-0.887-1.981-1.981v-1.452c0-1.094,0.887-1.981,1.981-1.981
			h39.98c1.094,0,1.981,0.887,1.981,1.981v1.452C422.932,415.799,422.045,416.686,420.951,416.686z"/>
	</g>
</g>
<g id="Speech_bubble">
	<g>
		<path style="fill:#407BFF;" d="M199.559,141.021h-30.066c-1.675,0-3.033-1.358-3.033-3.033v-30.066
			c0-1.675,1.358-3.033,3.033-3.033h30.066c1.675,0,3.033,1.358,3.033,3.033v30.066
			C202.592,139.663,201.234,141.021,199.559,141.021z"/>
		<path style="fill:#407BFF;" d="M180.384,137.811c0,0,1.846,10.176,15.297,14.769c0,0-7.648-7.385-7.648-14.769H180.384z"/>
		<g>
			<path style="fill:#FFFFFF;" d="M185.778,130.727v2.568h-1.916v-2.545c-2.289-0.138-4.509-0.872-5.723-1.904l1.051-2.316
				c1.145,0.918,2.896,1.583,4.672,1.743v-4.587c-2.593-0.619-5.373-1.445-5.373-4.632c0-2.339,1.729-4.38,5.373-4.725v-2.591h1.916
				v2.545c1.729,0.092,3.481,0.596,4.743,1.399l-0.958,2.316c-1.238-0.711-2.546-1.101-3.785-1.238v4.632
				c2.593,0.62,5.42,1.422,5.42,4.61C191.198,128.342,189.446,130.36,185.778,130.727z M183.863,120.911v-4.082
				c-1.659,0.252-2.359,1.078-2.359,2.087C181.503,120.017,182.508,120.521,183.863,120.911z M188.208,126.209
				c0-1.124-1.028-1.651-2.43-2.041v4.059C187.484,127.975,188.208,127.195,188.208,126.209z"/>
		</g>
	</g>
</g>
<g id="Character">
	<g>
		<g>
			<path style="fill:#407BFF;" d="M178.064,227.042c-1.25-0.349-8.898,15.038-8.767,16.443c0.132,1.405,10.418,2.526,10.418,2.526
				L178.064,227.042z"/>
			<path style="opacity:0.4;" d="M178.064,227.042c-1.25-0.349-8.898,15.038-8.767,16.443c0.132,1.405,10.418,2.526,10.418,2.526
				L178.064,227.042z"/>
			<path style="fill:#407BFF;" d="M178.064,227.042c0,0-8.965,22.464-6.723,27.739c2.242,5.275,29.407,5.407,32.308,5.011
				c2.901-0.396,4.766-28.111,4.766-28.111S193.753,231.347,178.064,227.042z"/>
			<path style="opacity:0.2;" d="M178.064,227.042c0,0-8.965,22.464-6.723,27.739c2.242,5.275,29.407,5.407,32.308,5.011
				c2.901-0.396,4.766-28.111,4.766-28.111S193.753,231.347,178.064,227.042z"/>
		</g>
		<g>
			<path style="fill:#E9B376;" d="M196.552,197.419c-0.496,0.451-1.16,1.086-1.75,1.656c-0.606,0.586-1.204,1.193-1.79,1.811
				c-1.163,1.245-2.331,2.494-3.428,3.801c-2.209,2.598-4.237,5.333-6.015,8.188l-0.639,1.082l-0.319,0.542l-0.16,0.271
				c-0.055,0.095-0.019,0.021-0.04,0.038c0.016-0.076,0.048-0.143,0.087-0.578c0.014-0.228,0.008-0.51-0.086-0.911
				c-0.093-0.385-0.295-0.852-0.593-1.224c-0.619-0.772-1.227-0.949-1.443-1.013c-0.244-0.061-0.298-0.036-0.294-0.021
				c0.145,0.081,0.951,0.062,1.671-0.039c0.757-0.087,1.579-0.227,2.409-0.397c3.337-0.688,6.867-1.638,10.335-2.518l1.839,4.155
				c-3.228,2.007-6.494,3.742-10.137,5.179c-0.918,0.351-1.857,0.69-2.884,0.98c-1.062,0.264-2.071,0.56-3.752,0.552
				c-0.451-0.021-0.958-0.059-1.639-0.254c-0.647-0.199-1.681-0.6-2.575-1.742c-0.43-0.559-0.733-1.233-0.873-1.842
				c-0.146-0.623-0.154-1.135-0.126-1.59c0.073-0.893,0.263-1.393,0.439-1.894l0.249-0.581l0.159-0.334l0.318-0.668l0.643-1.334
				c1.803-3.501,3.955-6.776,6.351-9.832c1.213-1.516,2.467-2.997,3.814-4.397c0.671-0.703,1.355-1.394,2.061-2.074
				c0.717-0.702,1.394-1.304,2.278-2.045L196.552,197.419z"/>
		</g>
		<g>
			<path style="fill:#407BFF;" d="M190.053,188.567c-5.163,3.088-7.427,7.809-7.427,7.809l9.099,9.978
				C191.725,206.354,202.425,181.167,190.053,188.567z"/>
			<path style="opacity:0.6;fill:#FFFFFF;" d="M194.56,198.43c-1.24,4.18-2.83,7.92-2.83,7.92l-3.74-4.1l-5.36-5.87
				c0,0,2.26-4.73,7.42-7.81C197.66,184.02,196.55,191.78,194.56,198.43z"/>
			<path style="opacity:0.2;enable-background:new    ;" d="M194.56,198.43c-1.24,4.18-2.83,7.92-2.83,7.92l-3.74-4.1
				c2.17-4.08,5.79-5.47,5.79-5.47C194.1,197.32,194.36,197.88,194.56,198.43z"/>
		</g>
		<path style="fill:#263238;" d="M233.891,158.337c0,0,9.647,32.079-10.673,36.383c-20.321,4.304-22.452-10.456-22.452-10.456
			S217.412,158.991,233.891,158.337z"/>
		<g>
			<path style="fill:none;stroke:#263238;stroke-width:0.5;stroke-linecap:round;stroke-linejoin:round;stroke-miterlimit:10;" d="
				M238.242,165.614c0,0-1.501-1.466-3.24-1.033"/>
			<path style="fill:#D58745;" d="M236.741,170.522c0,0,0.864,2.012,1.895,3.238c0,0-0.714,0.952-2.014,0.674L236.741,170.522z"/>
			<g>
				<path style="fill:#263238;" d="M238.188,168.601c-0.036,0.608-0.393,1.081-0.798,1.057c-0.405-0.024-0.704-0.535-0.668-1.143
					c0.036-0.607,0.393-1.081,0.798-1.057C237.924,167.482,238.223,167.993,238.188,168.601z"/>
				<path style="fill:#263238;" d="M237.349,167.477l1.351-0.44C238.7,167.037,237.977,168.11,237.349,167.477z"/>
			</g>
			<path style="fill:#EBB376;" d="M220.109,179.923c0.065,0.074,0.139,0.15,0.215,0.207c1.002,0.943,2.174,1.876,3.579,2.407
				c3.93,1.496,6.779,1.323,8.841-0.265c0.009,0.001,0.009,0.001,0.009,0.001c2.914-2.406,4.22-7.199,4.673-13.134
				c0.216-2.721,0.154-5.122-0.338-7.052c-0.007-0.02,0.003-0.087-0.004-0.107c-0.027-0.079-0.04-0.185-0.066-0.264
				c-0.759-2.706-2.377-4.614-5.229-5.718c-0.986-0.379-2.125-0.672-3.426-0.87C216.901,153.428,212.215,172.155,220.109,179.923z"
				/>
			<path style="opacity:0.2;enable-background:new    ;" d="M220.323,180.13c1.002,0.943,2.197,1.716,3.602,2.246
				c3.93,1.496,6.798,1.189,8.863-0.426c-2.053,0.166-4.757-0.038-7.199-1.6C224.049,179.371,222.169,179.505,220.323,180.13z"/>
			<path style="fill:#263238;" d="M237.103,162.012c0,0-0.477,8.137-8.581,10.542c0,0-4.427,7.91-9.266,7.364
				c-6.596-0.745-11.101-10.897-7.511-20.11C216.402,147.86,235.257,149.435,237.103,162.012z"/>
			<path style="fill:#EBB376;" d="M232.704,170.776c0.17-1.256-0.548-3.504-2.539-3.487c-2.061,0.018-3.867,4.843,0.944,6.64
				C231.799,174.187,232.348,173.396,232.704,170.776z"/>
			<path style="fill:#263238;" d="M224.265,151.526c0,0,7.946-0.884,11.766,2.789c4.46,4.289,5.826,8.278-0.841,13.259
				c0,0-12.317-5.956-16.725-5.662c-4.408,0.294-7.645,1.122-7.645,1.122C211.09,154.395,220.217,149.194,224.265,151.526z"/>
			<path style="fill:#EBB376;" d="M225.918,182.113c0,0-4.024,5.186-3.518,11.48l-18.985-4.311c0,0,11.657-6.818,12.291-12.355
				C215.705,176.927,224.421,175.332,225.918,182.113z"/>
		</g>
		<g>
			<path style="fill:#407BFF;" d="M187.659,235.126c6.296,1.137,19.652,0.606,32.568,2.949c15.39-42.351,11.638-41.15,11.638-41.15
				s-3.198-4.273-7.322-5.78c-0.158-0.058-0.305-0.107-0.442-0.156c-2.081-0.71-2.521-0.816-5.311-1.575
				c-4.796-1.06-9.264-1.925-14.789-2.673c-0.355-0.049-0.71-0.097-1.055-0.136c-1.002-0.117-1.993-0.214-2.952-0.301
				c-0.647-0.068-1.293-0.107-1.908-0.146c-0.729-0.039-1.438-0.078-2.104-0.107c-3.562-0.165-5.929,2.514-5.929,2.514
				C191.92,214.996,190.381,222.908,187.659,235.126z"/>
			<path style="opacity:0.6;fill:#FFFFFF;" d="M231.57,202.8c-0.86,3.91-2.69,10.41-6.38,21.21c-1.37,4.05-3.01,8.71-4.96,14.07
				c-12.92-2.35-26.28-1.82-32.57-2.95c2.72-12.22,4.26-20.13,2.39-46.56c0,0,2.37-2.68,5.93-2.52c0.67,0.03,1.38,0.07,2.11,0.11
				c0.61,0.04,1.26,0.08,1.9,0.15c0.96,0.08,1.95,0.18,2.96,0.3c0.34,0.04,0.7,0.08,1.05,0.13c5.53,0.75,9.99,1.62,14.79,2.68
				c2.79,0.75,3.23,0.86,5.31,1.57c0.14,0.05,0.28,0.1,0.44,0.16c4.13,1.5,7.33,5.78,7.33,5.78S232.95,196.58,231.57,202.8z"/>
			<path style="opacity:0.2;" d="M231.57,202.8c-0.86,3.91-2.69,10.41-6.38,21.21c-1.84-3.07-4.22-8.86-1.69-15.74
				C224.79,204.74,227.97,203.24,231.57,202.8z"/>
		</g>
		<g>
			<path style="fill:#E9B376;" d="M232.613,199.815c0.617,2.173,1.279,4.532,2.004,6.783c0.706,2.277,1.432,4.55,2.226,6.792
				c0.795,2.243,1.62,4.468,2.496,6.662c0.433,1.101,0.901,2.18,1.359,3.264c0.222,0.547,0.475,1.072,0.714,1.607l0.363,0.8
				l0.177,0.39c0.018,0.026,0.013,0.051,0.036,0.088c0.122,0.29,0.653,0.867,1.374,1.395c0.724,0.536,1.62,1.055,2.584,1.523
				c1.934,0.946,4.105,1.759,6.331,2.471c4.456,1.414,9.197,2.584,13.862,3.573l-0.42,4.524c-5.095-0.043-10.068-0.464-15.136-1.437
				c-2.528-0.505-5.069-1.119-7.653-2.1c-1.291-0.496-2.599-1.081-3.932-1.884c-1.322-0.814-2.729-1.836-3.952-3.611
				c-0.151-0.216-0.291-0.468-0.431-0.705l-0.236-0.432l-0.461-0.846c-0.304-0.565-0.623-1.127-0.905-1.699
				c-0.59-1.136-1.153-2.284-1.684-3.441c-1.084-2.306-2.081-4.641-2.977-7.007c-0.905-2.363-1.779-4.733-2.55-7.136
				c-0.755-2.43-1.48-4.782-2.09-7.361L232.613,199.815z"/>
		</g>
		<path style="fill:#EBB376;" d="M264.631,235.775l5.891-2.365l0.995,5.559c0,0-5.313,3.224-7.524-0.613L264.631,235.775z"/>
		<polygon style="fill:#EBB376;" points="273.445,233.751 275.334,238.053 271.517,238.968 270.522,233.409 		"/>
		<path style="fill:#407BFF;" d="M228.786,194.213c5.079,3.315,8.315,10.69,9.175,14.915l-11.784,9.605
			c0,0-6.42-14.334-4.313-17.997C224.06,196.92,226.866,192.959,228.786,194.213z"/>
		<path style="fill:#EBB376;" d="M245.622,408.421l5.382-1.468c-1.972-27.146-7.299-59.903-11.825-84.465
			c-0.711-3.851-1.396-7.49-2.054-10.881c-0.317-1.612-0.615-3.16-0.909-4.652c-1.439-7.361-2.65-13.177-3.403-16.772
			c-0.552-2.622-0.865-4.062-0.865-4.062l-19.354,5.613l1.611,4.877l5.319,16.101l0.604,1.842l3.523,10.629l5.98,18.101
			C230.46,370.969,245.622,408.421,245.622,408.421z"/>
		<path style="fill:#EBB376;" d="M198.678,407.108l5.56-0.534c2.904-29.441,3.02-66.095,2.623-91.565
			c-0.066-3.946-0.139-7.634-0.215-10.974c-0.004-0.173-0.015-0.332-0.016-0.494c-0.161-6.63-0.333-11.901-0.455-15.24
			c-0.108-2.612-0.164-4.044-0.164-4.044l-20.032,2.239l1.246,8.333l1.824,12.246l0.36,2.4l1.249,8.344l3.348,22.376
			C190.111,367.616,198.678,407.108,198.678,407.108z"/>
		<path style="opacity:0.2;enable-background:new    ;" d="M189.049,307.075l17.597-3.04c-0.004-0.173-0.015-0.332-0.016-0.494
			c-0.161-6.63-0.333-11.901-0.455-15.24l-18.95,6.528L189.049,307.075z"/>
		<path style="opacity:0.2;enable-background:new    ;" d="M234.754,299.597l-18.52,3.144l-2.026-6.132l18.604-6.424
			C233.292,292.473,233.96,295.669,234.754,299.597z"/>
		<path style="fill:#263238;" d="M186.768,233.617c0,0-12.013,28.062-0.789,68.752c0,0,6.207,2.131,21.881-0.185
			c14.107-2.085,26.673-7.487,26.673-7.487c-6.746-33.018-12.827-47.997-12.827-47.997l-0.266-9.275L186.768,233.617z"/>
		<g>
			<path style="fill:#263238;" d="M196.04,405.975c0.016-0.698,8.599-0.151,8.599-0.151s5.28,5.371,10.41,6.578
				c5.129,1.207,2.263,4.285-3.47,4.285c-5.733,0-10.108,0-14.181,0C193.324,416.686,195.87,413.216,196.04,405.975z"/>
			<g>
				<path style="fill:#407BFF;" d="M209.155,408.021c-1.199,0-3.106-0.873-3.557-1.088c-0.03-0.014-0.056-0.034-0.076-0.059l0,0h0
					c-0.012-0.015-0.022-0.031-0.031-0.048c-0.025-0.053-0.03-0.115-0.009-0.174c0.03-0.085,0.751-2.089,1.915-2.573
					c0.369-0.154,0.743-0.143,1.111,0.03c0.391,0.186,0.581,0.428,0.564,0.722c-0.026,0.451-0.638,0.904-1.335,1.276
					c0.727-0.072,1.469-0.051,1.925,0.21c0.242,0.139,0.396,0.335,0.458,0.581c0.129,0.509-0.042,0.779-0.208,0.915
					C209.734,407.961,209.469,408.021,209.155,408.021z M206.383,406.789c1.264,0.535,2.837,1.009,3.242,0.676
					c0.035-0.029,0.142-0.117,0.057-0.454c-0.032-0.125-0.112-0.223-0.246-0.3C208.818,406.357,207.346,406.575,206.383,406.789z
					 M207.919,404.425c-0.115,0-0.231,0.025-0.348,0.073c-0.634,0.264-1.176,1.197-1.473,1.845c1.272-0.483,2.5-1.151,2.522-1.537
					c0.007-0.12-0.188-0.231-0.306-0.286C208.182,404.457,208.05,404.425,207.919,404.425z"/>
			</g>
		</g>
		<g>
			<path style="fill:#263238;" d="M244.09,405.975c0.016-0.698,8.599-0.151,8.599-0.151s5.28,5.371,10.41,6.578
				c5.129,1.207,2.263,4.285-3.47,4.285c-5.733,0-10.108,0-14.181,0C241.375,416.686,243.92,413.216,244.09,405.975z"/>
			<g>
				<path style="fill:#407BFF;" d="M257.205,408.021c-1.199,0-3.106-0.873-3.557-1.088c-0.03-0.014-0.056-0.034-0.076-0.059l0,0h0
					c-0.012-0.015-0.022-0.031-0.031-0.048c-0.025-0.053-0.03-0.115-0.009-0.174c0.03-0.085,0.751-2.089,1.915-2.573
					c0.369-0.154,0.743-0.143,1.111,0.03c0.391,0.186,0.581,0.428,0.564,0.722c-0.026,0.451-0.638,0.904-1.335,1.276
					c0.726-0.072,1.469-0.051,1.925,0.21c0.242,0.139,0.396,0.335,0.458,0.581c0.13,0.509-0.042,0.779-0.208,0.915
					C257.784,407.961,257.519,408.021,257.205,408.021z M254.433,406.789c1.264,0.535,2.837,1.009,3.242,0.676
					c0.035-0.029,0.142-0.117,0.057-0.454c-0.032-0.125-0.112-0.223-0.246-0.3C256.868,406.357,255.396,406.575,254.433,406.789z
					 M255.969,404.425c-0.115,0-0.23,0.025-0.348,0.073c-0.634,0.264-1.176,1.197-1.473,1.845c1.271-0.483,2.5-1.151,2.522-1.537
					c0.007-0.12-0.189-0.231-0.306-0.286C256.232,404.457,256.1,404.425,255.969,404.425z"/>
			</g>
		</g>
		<g>
			<path d="M194.186,239.988l18.457,1.93v-4.191l-17.917-1.772C194.588,236.973,194.363,238.648,194.186,239.988z"/>
			<polygon points="214.083,237.869 214.083,242.068 221.72,242.867 221.72,238.624 			"/>
			<polygon points="193.26,235.809 185.5,235.041 184.526,238.978 192.532,239.815 			"/>
		</g>
		<path style="opacity:0.6;fill:#FFFFFF;" d="M228.786,194.213c5.079,3.315,8.315,10.69,9.175,14.915l-11.784,9.605
			c0,0-6.42-14.334-4.313-17.997C224.06,196.92,226.866,192.959,228.786,194.213z"/>
		<path style="fill:#407BFF;" d="M198.78,185.178c0,0-8.384,8.726-19.659,44.547l-1.8-0.45
			C177.322,229.275,189.324,188.451,198.78,185.178z"/>
		<path style="fill:#263238;" d="M228.522,172.554c0,0,0.056,11.637-10.05,15.501c-10.106,3.863-3.806,16.411-15.058,14.932
			c-5.988-0.787-14.521-13.705,0-25.086c8.465-6.634-1.601-28.418,20.851-26.375C224.265,151.526,223.884,166.458,228.522,172.554z"
			/>
	</g>
</g>
</svg>
